# Blender v2.78 (sub 0) OBJ File: '22.blend'
# www.blender.org
mtllib WhiteBoard_01.mtl
g White_board.001_Cube.026
v 3.812585 0.649725 0.129410
v 3.688778 0.629631 0.129410
v 3.754843 0.614036 0.129410
v 3.503361 0.763264 0.129410
v 3.483267 0.887072 0.129410
v 3.467673 0.821006 0.129410
v 4.472240 1.716681 0.129410
v 4.492334 1.592873 0.129410
v 4.507928 1.658939 0.129410
v 4.163015 1.830220 0.129410
v 4.286824 1.850314 0.129410
v 4.220757 1.865909 0.129410
v 3.698547 0.651038 0.318495
v 3.688778 0.629631 0.295416
v 3.796546 0.666943 0.318495
v 3.812585 0.649725 0.295416
v 3.750841 0.638694 0.318495
v 3.754843 0.614036 0.295416
v 3.504674 0.877302 0.318495
v 3.483267 0.887072 0.295416
v 3.520580 0.779303 0.318495
v 3.503361 0.763264 0.295416
v 3.492331 0.825008 0.318495
v 3.467673 0.821006 0.295416
v 4.470927 1.602643 0.318495
v 4.492334 1.592873 0.295416
v 4.455022 1.700642 0.318495
v 4.472240 1.716681 0.295416
v 4.483271 1.654937 0.318495
v 4.507928 1.658939 0.295416
v 4.277054 1.828907 0.318495
v 4.286824 1.850314 0.295416
v 4.179054 1.813002 0.318495
v 4.163015 1.830220 0.295416
v 4.224759 1.841251 0.318495
v 4.220757 1.865909 0.295416
v 3.754843 0.614036 0.096452
v 3.812585 0.649725 0.096452
v 3.688778 0.629631 0.096452
v 3.483267 0.887072 0.096452
v 3.467673 0.821006 0.096452
v 3.503361 0.763264 0.096452
v 4.286824 1.850314 0.096452
v 4.220757 1.865909 0.096452
v 4.163015 1.830220 0.096452
v 4.492334 1.592873 0.096452
v 4.507928 1.658939 0.096452
v 4.472240 1.716681 0.096452
vn 0.5258 -0.8506 0.0000
vn 0.2297 0.9733 0.0000
vn -0.2297 -0.9733 0.0000
vn 0.8113 -0.5847 0.0000
vn -0.8506 -0.5257 0.0000
vn -0.9733 0.2297 0.0000
vn -0.5847 -0.8113 0.0000
vn -0.8113 0.5847 0.0000
vn 0.9733 -0.2297 0.0000
vn -0.5258 0.8506 0.0000
vn 0.8506 0.5257 0.0000
vn 0.5847 0.8113 0.0000
vn 0.3718 -0.6015 0.7071
vn -0.1624 -0.6882 0.7071
vn -0.6882 0.1624 0.7071
vn -0.6015 -0.3718 0.7071
vn 0.1624 0.6882 0.7071
vn -0.3718 0.6015 0.7071
vn 0.6882 -0.1624 0.7071
vn 0.6015 0.3718 0.7071
vn -0.4134 -0.5736 0.7071
vn 0.5736 -0.4134 0.7071
vn 0.4134 0.5736 0.7071
vn -0.5736 0.4134 0.7071
vn 0.0000 0.0000 1.0000
vn -0.0000 0.0000 -1.0000
vn 0.5257 -0.8506 0.0000
usemtl 1A1A1A
s off
f 1//1 16//1 18//1 3//1
f 32//2 11//2 12//2 36//2
f 3//3 18//3 14//3 2//3
f 8//4 26//4 16//4 1//4
f 24//5 6//5 4//5 22//5
f 20//6 5//6 6//6 24//6
f 2//7 14//7 22//7 4//7
f 5//8 20//8 34//8 10//8
f 26//9 8//9 9//9 30//9
f 36//10 12//10 10//10 34//10
f 30//11 9//11 7//11 28//11
f 11//12 32//12 28//12 7//12
f 15//13 17//13 18//13 16//13
f 17//14 13//14 14//14 18//14
f 23//15 19//15 20//15 24//15
f 21//16 23//16 24//16 22//16
f 35//17 31//17 32//17 36//17
f 33//18 35//18 36//18 34//18
f 29//19 25//19 26//19 30//19
f 27//20 29//20 30//20 28//20
f 13//21 21//21 22//21 14//21
f 25//22 15//22 16//22 26//22
f 28//23 32//23 31//23 27//23
f 34//24 20//24 19//24 33//24
f 31//25 35//25 33//25 19//25 23//25 21//25 13//25 17//25 15//25 25//25 29//25 27//25
usemtl 455A64
f 4//5 6//5 41//5 42//5
f 42//26 41//26 40//26 45//26 44//26 43//26 48//26 47//26 46//26 38//26 37//26 39//26
f 11//12 7//12 48//12 43//12
f 1//27 3//27 37//27 38//27
f 7//11 9//11 47//11 48//11
f 12//2 11//2 43//2 44//2
f 8//4 1//4 38//4 46//4
f 3//3 2//3 39//3 37//3
f 2//7 4//7 42//7 39//7
f 10//10 12//10 44//10 45//10
f 6//6 5//6 40//6 41//6
f 5//8 10//8 45//8 40//8
f 9//9 8//9 46//9 47//9
g White_board_Cube.045
v -4.978770 0.000000 0.198740
v -4.978770 6.730971 0.198740
v -4.978770 0.000000 0.021627
v -4.978770 6.730971 0.021627
v 4.978770 0.000000 0.198740
v 4.978770 6.730971 0.198740
v 4.978770 0.000000 0.021627
v 4.978770 6.730971 0.021627
v -4.828341 0.146161 0.198740
v -4.828341 6.584811 0.198740
v 4.828341 6.584811 0.198740
v 4.828341 0.146161 0.198740
v -4.828341 0.146161 0.093653
v -4.828341 6.584811 0.093653
v 4.828341 6.584811 0.093653
v 4.828341 0.146161 0.093653
vn 0.0000 0.0000 1.0000
vn -1.0000 0.0000 0.0000
vn 0.0000 0.0000 -1.0000
vn 1.0000 0.0000 0.0000
vn 0.0000 -1.0000 0.0000
vn 0.0000 1.0000 0.0000
usemtl FFFFFF
s off
f 64//28 63//28 62//28 61//28
usemtl F44336
f 49//29 50//29 52//29 51//29
f 51//30 52//30 56//30 55//30
f 55//31 56//31 54//31 53//31
f 54//28 50//28 58//28 59//28
f 51//32 55//32 53//32 49//32
f 56//33 52//33 50//33 54//33
f 59//32 58//32 62//32 63//32
f 53//28 54//28 59//28 60//28
f 50//28 49//28 57//28 58//28
f 49//28 53//28 60//28 57//28
f 60//29 59//29 63//29 64//29
f 57//33 60//33 64//33 61//33
f 58//31 57//31 61//31 62//31
