# 3ds Max Wavefront OBJ Exporter v0.97b - (c)2007 guruware
# File Created: 06.09.2017 21:24:19

mtllib Shelf.mtl

#
# object Box001
#

v  -216549.7813 551843.3125 936657.4375
v  -221285.8438 551843.3125 441090.1250
v  -66100.8750 551843.3125 443292.1875
v  -61364.8125 551843.3125 938859.5000
v  -216549.7813 570581.3750 936657.4375
v  -37565.0391 570581.3750 939197.1250
v  -42301.1016 570581.3750 443629.9375
v  -221285.8438 570581.3750 441090.1250
# 8 vertices

vn 0.0000 -1.0000 -0.0000
vn 0.0000 1.0000 -0.0000
vn 0.0096 0.0000 1.0000
vn 0.4786 -0.8780 0.0068
vn -0.0096 0.0000 -1.0000
vn -0.9999 0.0000 -0.0142
# 6 vertex normals

vt 1.0000 0.0000 0.0000
vt 1.0000 1.0000 0.0000
vt 0.0000 1.0000 0.0000
vt 0.0000 0.0000 0.0000
# 4 texture coords

g Box001
usemtl _crayfishdiffuse
s 2
f -8/-4/-6 -7/-3/-6 -6/-2/-6 -5/-1/-6 
s 4
f -4/-1/-5 -3/-4/-5 -2/-3/-5 -1/-2/-5 
s 8
f -8/-1/-4 -5/-4/-4 -3/-3/-4 -4/-2/-4 
s 16
f -5/-1/-3 -6/-4/-3 -2/-3/-3 -3/-2/-3 
s 32
f -6/-1/-2 -7/-4/-2 -1/-3/-2 -2/-2/-2 
s 64
f -7/-1/-1 -8/-4/-1 -4/-3/-1 -1/-2/-1 
# 6 polygons

#
# object Box002
#

v  -217108.9375 399163.0313 534693.2500
v  -217102.5313 399163.0313 518823.5938
v  -205203.4063 399163.0313 518829.5000
v  -205209.8125 399163.0313 534699.1250
v  -217108.9375 566450.3750 534693.2500
v  -205209.8125 566450.3750 534699.1250
v  -205203.4063 566450.3750 518829.5000
v  -217102.5313 566450.3750 518823.5938
v  -205209.8125 410535.2813 534699.1250
v  -217108.9375 410535.2813 534693.2500
v  -89931.4141 566974.5000 518886.5313
v  -102341.5625 567424.1250 518880.4063
v  -102347.9688 567424.1250 534750.0625
v  -89937.8203 566974.5000 534756.1875
v  -217102.5313 410535.2813 518823.5938
v  -205203.4063 410535.2813 518829.5000
v  -180523.0781 399163.0313 518841.7188
v  -180529.4844 399163.0313 534711.3750
v  -188633.9063 410535.2813 518837.6875
v  -188640.3125 410535.2813 534707.3750
# 20 vertices

vn 0.0000 -1.0000 -0.0000
vn 0.0000 1.0000 -0.0000
vn -0.0004 -0.0000 1.0000
vn 0.0145 0.9999 0.0000
vn 0.0004 -0.0000 -1.0000
vn -1.0000 0.0000 -0.0005
vn -0.0004 0.0000 1.0000
vn 1.0000 -0.0000 0.0005
vn 0.0004 0.0000 -1.0000
vn -1.0000 -0.0000 -0.0005
vn 0.0000 -1.0000 0.0000
vn -0.0000 1.0000 -0.0000
vn 0.5945 -0.8041 0.0003
vn -0.5873 0.8094 -0.0003
# 14 vertex normals

vt 1.0000 0.0000 0.0000
vt 1.0000 1.0000 0.0000
vt 0.0000 1.0000 0.0000
vt 0.0000 0.0000 0.0000
vt 1.0000 0.1100 0.0000
vt 0.0000 0.1100 0.0000
# 6 texture coords

g Box002
usemtl 02___Default
s 2
f -20/-6/-14 -19/-5/-14 -18/-4/-14 -17/-3/-14 
s 4
f -16/-3/-13 -15/-6/-13 -14/-5/-13 -13/-4/-13 
s 8
f -17/-6/-12 -12/-2/-12 -11/-1/-12 -20/-3/-12 
s 16
f -10/-6/-11 -9/-2/-11 -8/-1/-11 -7/-3/-11 
s 32
f -19/-6/-10 -6/-2/-10 -5/-1/-10 -18/-3/-10 
s 64
f -20/-6/-9 -11/-2/-9 -6/-1/-9 -19/-3/-9 
s 8
f -15/-5/-8 -16/-4/-8 -11/-1/-12 -12/-2/-12 
s 16
f -14/-5/-7 -15/-4/-7 -12/-1/-7 -5/-2/-7 
s 32
f -13/-5/-6 -14/-4/-6 -5/-1/-10 -6/-2/-10 
s 64
f -16/-5/-5 -13/-4/-5 -6/-1/-9 -11/-2/-9 
s off
f -17/-3/-4 -18/-6/-4 -4/-6/-4 -3/-3/-4 
f -18/-6/-10 -5/-2/-10 -2/-2/-10 -4/-6/-10 
f -5/-2/-3 -12/-1/-3 -1/-1/-3 -2/-2/-3 
f -12/-1/-12 -17/-3/-12 -3/-3/-12 -1/-1/-12 
f -3/-3/-2 -4/-6/-2 -10/-6/-2 -7/-3/-2 
f -4/-6/-6 -2/-2/-6 -9/-2/-6 -10/-6/-6 
f -2/-2/-1 -1/-1/-1 -8/-1/-1 -9/-2/-1 
f -1/-1/-8 -3/-3/-8 -7/-3/-8 -8/-1/-8 
# 18 polygons

#
# object Box003
#

v  -217238.0469 399163.0313 854519.1875
v  -217231.6406 399163.0313 838649.5625
v  -205332.5156 399163.0313 838655.4375
v  -205338.9219 399163.0313 854525.0625
v  -217238.0469 566450.3750 854519.1875
v  -205338.9219 566450.3750 854525.0625
v  -205332.5156 566450.3750 838655.4375
v  -217231.6406 566450.3750 838649.5625
v  -205338.9219 410535.2813 854525.0625
v  -217238.0469 410535.2813 854519.1875
v  -90060.5234 566974.5000 838712.5000
v  -102470.6719 567424.1250 838706.3125
v  -102477.0781 567424.1250 854576.0000
v  -90066.9297 566974.5000 854582.1250
v  -217231.6406 410535.2813 838649.5625
v  -205332.5156 410535.2813 838655.4375
v  -180652.1875 399163.0313 838667.6250
v  -180658.5938 399163.0313 854537.3125
v  -188763.0156 410535.2813 838663.6250
v  -188769.4219 410535.2813 854533.3125
# 20 vertices

vn 0.0000 -1.0000 -0.0000
vn 0.0000 1.0000 -0.0000
vn -0.0004 -0.0000 1.0000
vn 0.0145 0.9999 0.0000
vn 0.0004 -0.0000 -1.0000
vn -1.0000 0.0000 -0.0005
vn -0.0004 0.0000 1.0000
vn 1.0000 -0.0000 0.0005
vn 0.0004 0.0000 -1.0000
vn -1.0000 -0.0000 -0.0005
vn 0.0000 -1.0000 0.0000
vn -0.0000 1.0000 -0.0000
vn 0.5945 -0.8041 0.0003
vn -0.5873 0.8094 -0.0003
# 14 vertex normals

vt 1.0000 0.0000 0.0000
vt 1.0000 1.0000 0.0000
vt 0.0000 1.0000 0.0000
vt 0.0000 0.0000 0.0000
vt 1.0000 0.1100 0.0000
vt 0.0000 0.1100 0.0000
# 6 texture coords

g Box003
usemtl 02___Default
s 2
f -20/-6/-14 -19/-5/-14 -18/-4/-14 -17/-3/-14 
s 4
f -16/-3/-13 -15/-6/-13 -14/-5/-13 -13/-4/-13 
s 8
f -17/-6/-12 -12/-2/-12 -11/-1/-12 -20/-3/-12 
s 16
f -10/-6/-11 -9/-2/-11 -8/-1/-11 -7/-3/-11 
s 32
f -19/-6/-10 -6/-2/-10 -5/-1/-10 -18/-3/-10 
s 64
f -20/-6/-9 -11/-2/-9 -6/-1/-9 -19/-3/-9 
s 8
f -15/-5/-8 -16/-4/-8 -11/-1/-12 -12/-2/-12 
s 16
f -14/-5/-7 -15/-4/-7 -12/-1/-7 -5/-2/-7 
s 32
f -13/-5/-6 -14/-4/-6 -5/-1/-10 -6/-2/-10 
s 64
f -16/-5/-5 -13/-4/-5 -6/-1/-9 -11/-2/-9 
s off
f -17/-3/-4 -18/-6/-4 -4/-6/-4 -3/-3/-4 
f -18/-6/-10 -5/-2/-10 -2/-2/-10 -4/-6/-10 
f -5/-2/-3 -12/-1/-3 -1/-1/-3 -2/-2/-3 
f -12/-1/-12 -17/-3/-12 -3/-3/-12 -1/-1/-12 
f -3/-3/-2 -4/-6/-2 -10/-6/-2 -7/-3/-2 
f -4/-6/-6 -2/-2/-6 -9/-2/-6 -10/-6/-6 
f -2/-2/-1 -1/-1/-1 -8/-1/-1 -9/-2/-1 
f -1/-1/-8 -3/-3/-8 -7/-3/-8 -8/-1/-8 
# 18 polygons

